<mxfile host="65bd71144e" modified="2021-01-15T12:54:44.730Z" agent="5.0 (Windows NT 10.0; Win64; x64) AppleWebKit/537.36 (KHTML, like Gecko) Code/1.52.1 Chrome/83.0.4103.122 Electron/9.3.5 Safari/537.36" version="13.10.0" etag="trUqNovVyX3mBh4r6gRo" type="embed">
    <diagram id="L7256qGd200lIzTl2BIN" name="Page-1">
        <mxGraphModel dx="1054" dy="639" grid="1" gridSize="10" guides="1" tooltips="1" connect="1" arrows="1" fold="1" page="1" pageScale="1" pageWidth="850" pageHeight="1100" math="0" shadow="0">
            <root>
                <mxCell id="0"/>
                <mxCell id="1" parent="0"/>
                <mxCell id="2" value="&lt;span style=&quot;font-size: 21px; line-height: 115%; font-family: consolas; color: black;&quot;&gt;++[[]][+[]]+[+[]]&lt;/span&gt;" style="text;html=1;strokeColor=#2D7600;fillColor=#60a917;align=center;verticalAlign=middle;whiteSpace=wrap;rounded=0;fontColor=#ffffff;fontSize=21;" vertex="1" parent="1">
                    <mxGeometry x="40" y="10" width="360" height="60" as="geometry"/>
                </mxCell>
                <mxCell id="3" value="&lt;span style=&quot;font-size: 21px ; line-height: 115% ; font-family: &amp;#34;consolas&amp;#34; ; color: black&quot;&gt;1&amp;nbsp; +&amp;nbsp; &amp;nbsp;&quot;0&quot;&amp;nbsp; =&amp;gt; &quot;10&quot;&lt;/span&gt;" style="text;html=1;strokeColor=#2D7600;fillColor=#60a917;align=center;verticalAlign=middle;whiteSpace=wrap;rounded=0;fontColor=#ffffff;fontSize=21;" vertex="1" parent="1">
                    <mxGeometry x="40" y="110" width="360" height="60" as="geometry"/>
                </mxCell>
            </root>
        </mxGraphModel>
    </diagram>
</mxfile>